<svg height="512" viewBox="0 0 56 56" width="512" xmlns="http://www.w3.org/2000/svg"><g id="Page-1" fill="none" fill-rule="evenodd"><g id="033---Pet-Adoption" fill="rgb(0,0,0)" fill-rule="nonzero"><path id="Shape" d="m45 1c0-.55228475-.4477153-1-1-1h-4c-.5522847 0-1 .44771525-1 1v4.072l6 4.222z"/><path id="Shape" d="m32.523 30.931c1.066.188 2.2-1.013 2.482-2.615.1503119-.7831597.0491577-1.5937935-.289-2.316-.217309-.4911359-.6490125-.8545787-1.17-.985-.072634-.0127748-.1462513-.0191327-.22-.019-1 0-2 1.142-2.263 2.634-.277 1.606.392 3.116 1.46 3.301z"/><path id="Shape" d="m23.512 30.931c.5211229-.1307735.9528123-.4945732 1.17-.986.6609428-1.4823082.3606899-3.2170591-.76-4.391-.3224348-.3281523-.7548329-.525474-1.214-.554-.0734117-.0000032-.1466857.0063539-.219.019-.5204029.1295628-.9522596.4913488-1.171.981-.3373086.7210299-.4384456 1.5301259-.289 2.312.278 1.607 1.419 2.809 2.483 2.619z"/><path id="Shape" d="m17.283 34c-.1108463-.0002358-.2210915.0162841-.327.049-.3717454.1309885-.6652821.4215898-.8.792-.3775378 1.0335639-.017202 2.1919617.88 2.829.3150606.2428043.7285822.3170723 1.1084423.1990749.3798602-.1179974.6785206-.4134932.8005577-.7920749.1912495-.5012819.2046634-1.0530164.038-1.563-.1946095-.8103297-.8726304-1.4141671-1.7-1.514z"/><path id="Shape" d="m37.858 37.87c.3806584.1023769.7871573.0290017 1.108-.2.897202-.6370383 1.2575378-1.7954361.88-2.829-.1347179-.3704102-.4282546-.6610115-.8-.792-.777-.24-1.7.429-2.025 1.465-.1666634.5099836-.1532495 1.0617181.038 1.563.1340078.3707328.4272676.6617905.799.793z"/><path id="Shape" d="m22.871 40.644c-.8150773.9689882-1.0666742 2.292524-.664 3.493.2909512.5945553.925632.9405627 1.583.863.6020176-.0251187 1.1927898-.1713663 1.737-.43.7773315-.3552037 1.6186127-.54911 2.473-.57.8543873.02089 1.6956685.2147963 2.473.57.5442102.2586337 1.1349824.4048813 1.737.43.657368.0775627 1.2920488-.2684447 1.583-.863.4026742-1.200476.1510773-2.5240118-.664-3.493-.5526855-.7093522-1.0381145-1.4686301-1.45-2.268-1.17-2.101-2.001-3.376-3.679-3.376s-2.509 1.275-3.679 3.376c-.4118855.7993699-.8973145 1.5586478-1.45 2.268z"/><path id="Shape" d="m55.575 19.182-27-19c-.3456774-.24145571-.8053226-.24145571-1.151 0l-27 19c-.44174045.32109-.54419274.9371893-.23014149 1.3839613.31405124.446772.92845003.5589723 1.38014149.2520387l25.85-18.19c.3454298-.24340041.8065702-.24340041 1.152 0l25.849 18.19c.2169083.1528834.48569.2132807.7471517.1678906.2614618-.0453901.4941602-.1928448.6468483-.4098906.3174905-.4517853.2087056-1.0753961-.243-1.393z"/><path id="Shape" d="m6 20.15v34.85c0 .5522847.44771525 1 1 1h42c.5522847 0 1-.4477153 1-1v-34.85l-22-15.482zm42 10.05c0 7.946-5.155 18.934-19.685 23.752-.204515.0678778-.425485.0678778-.63 0-14.53-4.821-19.685-15.809-19.685-23.752 0-7.4 4.612-13.2 10.5-13.2 3.5537151.0181156 6.9608658 1.4186338 9.5 3.905 2.5391342-2.4863662 5.9462849-3.8868844 9.5-3.905 5.888 0 10.5 5.8 10.5 13.2z"/><path id="Shape" d="m27.214 22.993c-2.2124842-2.4991066-5.3765338-3.9489632-8.714-3.993-4.767 0-8.5 4.918-8.5 11.2 0 7.223 4.723 17.214 18 21.748 13.277-4.537 18-14.528 18-21.748 0-6.282-3.733-11.2-8.5-11.2-3.3374662.0440368-6.5015158 1.4938934-8.714 3.993-.1895362.2404847-.4788026.3808803-.785.381-.3068992.0004935-.5970296-.1399635-.787-.381zm-7.677 2.1c.4702273-1.0778578 1.4503122-1.8475305 2.6089212-2.0488176 1.1586089-.2012872 2.3408618.1927187 3.1470788 1.0488176 1.7686053 1.7835973 2.2358328 4.4815364 1.17 6.756-.4966264 1.0572482-1.4648625 1.8166272-2.61 2.047-.1819791.0314383-.3663254.0471629-.551.047-1.975 0-3.813-1.8-4.243-4.292-.2249287-1.204316-.057378-2.4490288.478-3.551zm-.8 14.685c-.3013817.0940769-.6152764.1419534-.931.142-.6617329-.0062304-1.3073375-.2049849-1.858-.572-1.70762-1.1624617-2.3868229-3.3497604-1.638-5.275.3576662-.9218557 1.1124628-1.6329226 2.054-1.935 2.0166327-.4704523 4.0362734.7696936 4.529 2.781.3084473.9565364.2730767 1.9907715-.1 2.924-.3578967.9235854-1.1144476 1.6356549-2.058 1.937zm20.9-7.64c.9415372.3020774 1.6963338 1.0131443 2.054 1.935.7488229 1.9252396.06962 4.1125383-1.638 5.275-.5506625.3670151-1.1962671.5657696-1.858.572-.3157236-.0000466-.6296183-.0479231-.931-.142-.9419919-.3016918-1.6972436-1.0128412-2.055-1.935-.3730767-.9332285-.4084473-1.9674636-.1-2.924.4931534-2.0108408 2.5128913-3.2501545 4.529-2.779zm-10.544-4.845c.47-2.717 2.626-4.616 4.794-4.245 1.1472209.2307162 2.1168721.9921873 2.613 2.052.5367892 1.1054729.7043502 2.3541182.478 3.562-.431 2.486-2.268 4.292-4.244 4.292-.184343.00016-.368357-.0155649-.55-.047-2.176-.382-3.561-2.898-3.091-5.614zm4.333 10.107c.3516417.6866353.7643027 1.3402662 1.233 1.953 1.3113879 1.5649451 1.6740274 3.7166825.948 5.625-.6101225 1.3072255-1.9570247 2.1089436-3.397 2.022-.8543873-.02089-1.6956685-.2147963-2.473-.57-.5442102-.2586337-1.1349824-.4048813-1.737-.43-.6020176.0251187-1.1927898.1713663-1.737.43-.7773315.3552037-1.6186127.54911-2.473.57-1.4403288.0887284-2.7885578-.7118817-3.4-2.019-.7260274-1.9083175-.3633879-4.0600549.948-5.625.4698876-.6135705.8835587-1.268215 1.236-1.956 1.093-1.959 2.452-4.4 5.426-4.4s4.333 2.441 5.426 4.4z"/></g></g></svg>